<svg xmlns="http://www.w3.org/2000/svg" viewBox="0 0 480 300" width="480" height="300" role="img" aria-labelledby="t d">
<title id="t">A prayer answered</title>
<desc id="d">Someone raises both hands in thanks in the sunshine. In the book, the original prayer stays as written, with a note about how it was answered added underneath.</desc>
<rect x="1" y="1" width="478" height="298" rx="18" fill="#fbf4e8" stroke="#ead9bf" stroke-width="2"/><rect x="1" y="1" width="478" height="249" rx="18" fill="#dfe9ee" /><rect x="1" y="220" width="478" height="30" rx="0" fill="#dfe9ee" /><rect x="1" y="250" width="478" height="49" rx="0" fill="#f1e4cf" /><path d="M 1 281 L 1 281 Q 1 299 19 299 L 461 299 Q 479 299 479 281 L 479 250 L 1 250 Z" fill="#f1e4cf" /><line x1="1" y1="250" x2="479" y2="250" stroke="#ead9bf" stroke-width="2" stroke-linecap="butt" />
<circle cx="360" cy="96" r="26" fill="#f2c14e" opacity="0.9"/><line x1="392" y1="96" x2="401" y2="96" stroke="#f2c14e" stroke-width="3.5" stroke-linecap="round" /><line x1="387.7" y1="112" x2="395.5" y2="116.5" stroke="#f2c14e" stroke-width="3.5" stroke-linecap="round" /><line x1="376" y1="123.7" x2="380.5" y2="131.5" stroke="#f2c14e" stroke-width="3.5" stroke-linecap="round" /><line x1="360" y1="128" x2="360" y2="137" stroke="#f2c14e" stroke-width="3.5" stroke-linecap="round" /><line x1="344" y1="123.7" x2="339.5" y2="131.5" stroke="#f2c14e" stroke-width="3.5" stroke-linecap="round" /><line x1="332.3" y1="112" x2="324.5" y2="116.5" stroke="#f2c14e" stroke-width="3.5" stroke-linecap="round" /><line x1="328" y1="96" x2="319" y2="96" stroke="#f2c14e" stroke-width="3.5" stroke-linecap="round" /><line x1="332.3" y1="80" x2="324.5" y2="75.5" stroke="#f2c14e" stroke-width="3.5" stroke-linecap="round" /><line x1="344" y1="68.3" x2="339.5" y2="60.5" stroke="#f2c14e" stroke-width="3.5" stroke-linecap="round" /><line x1="360" y1="64" x2="360" y2="55" stroke="#f2c14e" stroke-width="3.5" stroke-linecap="round" /><line x1="376" y1="68.3" x2="380.5" y2="60.5" stroke="#f2c14e" stroke-width="3.5" stroke-linecap="round" /><line x1="387.7" y1="80" x2="395.5" y2="75.5" stroke="#f2c14e" stroke-width="3.5" stroke-linecap="round" /><ellipse cx="170" cy="251" rx="36" ry="5" fill="#2c1810" opacity="0.08"/><line x1="164" y1="170" x2="161" y2="245" stroke="#2c1810" stroke-width="12" stroke-linecap="round" /><ellipse cx="165" cy="247" rx="9" ry="4" fill="#2c1810"/><line x1="176" y1="170" x2="179" y2="245" stroke="#2c1810" stroke-width="12" stroke-linecap="round" /><ellipse cx="183" cy="247" rx="9" ry="4" fill="#2c1810"/><line x1="165" y1="119" x2="150.5" y2="93.9" stroke="#717e62" stroke-width="11" stroke-linecap="round" /><line x1="150.5" y1="93.9" x2="142.2" y2="68.2" stroke="#b78e6c" stroke-width="8.5" stroke-linecap="round" /><circle cx="142.2" cy="68.2" r="5.5" fill="#b78e6c" /><rect x="166.5" y="102" width="7" height="10" rx="0" fill="#e0ae84" /><rect x="151" y="110" width="38" height="68" rx="14" fill="#8a9a78" /><circle cx="173" cy="86" r="17" fill="#e0ae84" /><circle cx="160" cy="78" r="7" fill="#6b3f23" /><circle cx="165" cy="71" r="7" fill="#6b3f23" /><circle cx="173" cy="68" r="7" fill="#6b3f23" /><circle cx="181" cy="71" r="7" fill="#6b3f23" /><circle cx="186" cy="78" r="7" fill="#6b3f23" /><circle cx="158" cy="86" r="7" fill="#6b3f23" /><circle cx="180" cy="87" r="1.9" fill="#2c1810" /><path d="M 177 94 q 4 3 8 0" fill="none" stroke="#2c1810" stroke-width="1.6" stroke-linecap="round" stroke-linejoin="round" /><line x1="172" y1="119" x2="185.6" y2="93.4" stroke="#8a9a78" stroke-width="11" stroke-linecap="round" /><line x1="185.6" y1="93.4" x2="193.1" y2="67.4" stroke="#e0ae84" stroke-width="8.5" stroke-linecap="round" /><circle cx="193.1" cy="67.4" r="5.5" fill="#e0ae84" /><path d="M 120 63 Q 121.3 68.7 127 70 Q 121.3 71.3 120 77 Q 118.7 71.3 113 70 Q 118.7 68.7 120 63 Z" fill="#c9a96e" /><path d="M 230 57 Q 231.3 62.7 237 64 Q 231.3 65.3 230 71 Q 228.7 65.3 223 64 Q 228.7 62.7 230 57 Z" fill="#c9a96e" /><path d="M 250 113 Q 251.3 118.7 257 120 Q 251.3 121.3 250 127 Q 248.7 121.3 243 120 Q 248.7 118.7 250 113 Z" fill="#c9a96e" /><rect x="290" y="150" width="150" height="86" rx="6" fill="#fffaf0" stroke="#8b4513" stroke-width="2"/><line x1="304" y1="166" x2="420" y2="166" stroke="#c9a96e" stroke-width="2" stroke-linecap="round" /><line x1="304" y1="176" x2="400" y2="176" stroke="#c9a96e" stroke-width="2" stroke-linecap="round" /><line x1="304" y1="186" x2="380" y2="186" stroke="#c9a96e" stroke-width="2" stroke-linecap="round" /><line x1="304" y1="200" x2="426" y2="200" stroke="#ead9bf" stroke-width="1.5" stroke-linecap="round" /><text x="306" y="216" font-family="system-ui, -apple-system, 'Segoe UI', sans-serif" font-size="9" font-weight="700" fill="#8b4513" text-anchor="start">ANSWERED</text><line x1="306" y1="225" x2="400" y2="225" stroke="#8b4513" stroke-width="2" stroke-linecap="round" /><text x="240" y="34" font-family="system-ui, -apple-system, 'Segoe UI', sans-serif" font-size="15" font-weight="600" fill="#2c1810" text-anchor="middle">Answered: turn a prayer into a thanksgiving</text>
</svg>
