<svg xmlns="http://www.w3.org/2000/svg" viewBox="0 0 480 300" width="480" height="300" role="img" aria-labelledby="t d">
<title id="t">Paging through the book</title>
<desc id="d">Someone swipes on their phone and a single page of the prayer book turns over.</desc>
<rect x="1" y="1" width="478" height="298" rx="18" fill="#fbf4e8" stroke="#ead9bf" stroke-width="2"/><rect x="1" y="250" width="478" height="49" rx="0" fill="#f1e4cf" /><path d="M 1 281 L 1 281 Q 1 299 19 299 L 461 299 Q 479 299 479 281 L 479 250 L 1 250 Z" fill="#f1e4cf" /><line x1="1" y1="250" x2="479" y2="250" stroke="#ead9bf" stroke-width="2" stroke-linecap="butt" />
<ellipse cx="150" cy="251" rx="36" ry="5" fill="#2c1810" opacity="0.08"/><line x1="144" y1="170" x2="141" y2="245" stroke="#2c1810" stroke-width="12" stroke-linecap="round" /><ellipse cx="145" cy="247" rx="9" ry="4" fill="#2c1810"/><line x1="156" y1="170" x2="159" y2="245" stroke="#2c1810" stroke-width="12" stroke-linecap="round" /><ellipse cx="163" cy="247" rx="9" ry="4" fill="#2c1810"/><line x1="145" y1="119" x2="142" y2="147.8" stroke="#717e62" stroke-width="11" stroke-linecap="round" /><line x1="142" y1="147.8" x2="139.1" y2="174.7" stroke="#976442" stroke-width="8.5" stroke-linecap="round" /><circle cx="139.1" cy="174.7" r="5.5" fill="#976442" /><rect x="146.5" y="102" width="7" height="10" rx="0" fill="#b97a51" /><rect x="131" y="110" width="38" height="68" rx="14" fill="#8a9a78" /><circle cx="153" cy="86" r="17" fill="#b97a51" /><path d="M 136 85 A 17 17 0 0 1 170 85 Q 157 75 136 85 Z" fill="#1d1d1d" /><circle cx="160" cy="87" r="1.9" fill="#2c1810" /><path d="M 157 94 q 4 3 8 0" fill="none" stroke="#2c1810" stroke-width="1.6" stroke-linecap="round" stroke-linejoin="round" /><line x1="152" y1="119" x2="169.9" y2="141.9" stroke="#8a9a78" stroke-width="11" stroke-linecap="round" /><line x1="169.9" y1="141.9" x2="195.5" y2="133.5" stroke="#b97a51" stroke-width="8.5" stroke-linecap="round" /><circle cx="195.5" cy="133.5" r="5.5" fill="#b97a51" /><g transform="rotate(8 203.5 125.5)"><rect x="192.5" y="106.5" width="22" height="38" rx="4" fill="#2c1810" /><rect x="195" y="110" width="17" height="30" rx="2" fill="#fdf8f0" /></g><rect x="270" y="70" width="150" height="150" rx="6" fill="#fffaf0" stroke="#8b4513" stroke-width="2"/><line x1="288" y1="100" x2="400" y2="100" stroke="#c9a96e" stroke-width="2" stroke-linecap="round" /><line x1="288" y1="117" x2="382" y2="117" stroke="#c9a96e" stroke-width="2" stroke-linecap="round" /><line x1="288" y1="134" x2="364" y2="134" stroke="#c9a96e" stroke-width="2" stroke-linecap="round" /><line x1="288" y1="151" x2="400" y2="151" stroke="#c9a96e" stroke-width="2" stroke-linecap="round" /><line x1="288" y1="168" x2="382" y2="168" stroke="#c9a96e" stroke-width="2" stroke-linecap="round" /><line x1="288" y1="185" x2="364" y2="185" stroke="#c9a96e" stroke-width="2" stroke-linecap="round" /><path d="M 420 176 L 420 220 L 376 220 Q 404 206 420 176 Z" fill="#efe0c6" stroke="#8b4513" stroke-width="2" stroke-linecap="round" stroke-linejoin="round" /><path d="M 250 150 q -30 -24 -58 -6" fill="none" stroke="#8b4513" stroke-width="2.5" stroke-linecap="round" stroke-linejoin="round" /><path d="M 198 138 l -8 8 l 11 3" fill="none" stroke="#8b4513" stroke-width="2.5" stroke-linecap="round" stroke-linejoin="round" /><text x="345" y="244" font-family="system-ui, -apple-system, 'Segoe UI', sans-serif" font-size="12" font-weight="500" fill="#8b4513" text-anchor="middle">one page at a time</text><text x="240" y="34" font-family="system-ui, -apple-system, 'Segoe UI', sans-serif" font-size="15" font-weight="600" fill="#2c1810" text-anchor="middle">A book, not a feed: swipe to turn the page</text>
</svg>
