<svg xmlns="http://www.w3.org/2000/svg" viewBox="0 0 480 300" width="480" height="300" role="img" aria-labelledby="t d">
<title id="t">Praying now</title>
<desc id="d">Two people in different places. One taps the praying-now button on their phone, and the other sees the count of prayers for their request go up.</desc>
<defs><clipPath id="card"><rect x="1" y="1" width="478" height="298" rx="18" fill="#000" /></clipPath></defs>
<g clip-path="url(#card)"><rect x="0" y="0" width="480" height="300" rx="0" fill="#fbf4e8" /><rect x="0" y="250" width="480" height="50" rx="0" fill="#f1e4cf" /><line x1="0" y1="250" x2="480" y2="250" stroke="#ead9bf" stroke-width="2" stroke-linecap="butt" />
<rect x="22" y="56" width="196" height="194" rx="0" fill="#f3ece1" /><rect x="82" y="74" width="76" height="70" rx="4" fill="#dfe9ee" stroke="#ead9bf" stroke-width="4"/><line x1="120" y1="74" x2="120" y2="144" stroke="#ead9bf" stroke-width="3" stroke-linecap="round" /><line x1="82" y1="109" x2="158" y2="109" stroke="#ead9bf" stroke-width="3" stroke-linecap="round" /><path d="M 22 250 L 22 60 Q 22 56 26 56 L 214 56 Q 218 56 218 60 L 218 250" fill="none" stroke="#ead9bf" stroke-width="3" stroke-linecap="round" stroke-linejoin="round" /><rect x="262" y="56" width="196" height="194" rx="0" fill="#f3ece1" /><rect x="322" y="74" width="76" height="70" rx="4" fill="#dfe9ee" stroke="#ead9bf" stroke-width="4"/><line x1="360" y1="74" x2="360" y2="144" stroke="#ead9bf" stroke-width="3" stroke-linecap="round" /><line x1="322" y1="109" x2="398" y2="109" stroke="#ead9bf" stroke-width="3" stroke-linecap="round" /><path d="M 262 250 L 262 60 Q 262 56 266 56 L 454 56 Q 458 56 458 60 L 458 250" fill="none" stroke="#ead9bf" stroke-width="3" stroke-linecap="round" stroke-linejoin="round" /><line x1="240" y1="60" x2="240" y2="244" stroke="#ead9bf" stroke-width="3" stroke-linecap="round" stroke-dasharray="4 8"/><ellipse cx="92" cy="251" rx="30" ry="5" fill="#2c1810" opacity="0.08"/><path d="M 80.4 174 L 81.3 210.1 A 5.9 5.9 0 0 0 93.2 210.1 L 94.1 174 A 6.9 6.9 0 0 0 80.4 174 Z" fill="#23130c" /><path d="M 81.3 209.9 L 81.3 243.2 A 5 5 0 0 0 91.3 243.5 L 93.2 210.3 A 5.9 5.9 0 0 0 81.3 209.9 Z" fill="#23130c" /><path d="M 80.6 250 L 97.7 250 Q 99.1 244.3 91 242.9 L 84.4 241 Q 79.6 241.4 80.1 246.2 Z" fill="#23130c" /><line x1="80.6" y1="248.9" x2="97.7" y2="248.9" stroke="#5a4636" stroke-width="1.7" stroke-linecap="butt" /><path d="M 89.9 174.2 L 91.8 210.3 A 5.9 5.9 0 0 0 103.6 209.9 L 103.6 173.8 A 6.9 6.9 0 0 0 89.9 174.2 Z" fill="#2c1810" /><path d="M 91.8 210.3 L 93.7 243.5 A 5 5 0 0 0 103.6 243.2 L 103.6 209.9 A 5.9 5.9 0 0 0 91.8 210.3 Z" fill="#2c1810" /><path d="M 93 250 L 110.1 250 Q 111.5 244.3 103.4 242.9 L 96.8 241 Q 92 241.4 92.5 246.2 Z" fill="#2c1810" /><line x1="93" y1="248.9" x2="110.1" y2="248.9" stroke="#5a4636" stroke-width="1.7" stroke-linecap="butt" /><path d="M 76.8 125.1 L 74.4 152.5 A 4.3 4.3 0 0 0 82.9 153.4 L 86.3 126 A 4.8 4.8 0 0 0 76.8 125.1 Z" fill="#673f27" /><path d="M 74.4 152.5 L 73 173 A 3.6 3.6 0 0 0 80.1 173.7 L 82.9 153.4 A 4.3 4.3 0 0 0 74.4 152.5 Z" fill="#673f27" /><path d="M 75.2 124.9 L 73.9 141.9 A 5.9 5.9 0 0 0 85.7 143.2 L 87.9 126.2 A 6.4 6.4 0 0 0 75.2 124.9 Z" fill="#aa8f5d" /><path d="M 73 173 L 71 177.9 A 5 5 0 0 0 80.9 179 L 80.1 173.7 A 3.6 3.6 0 0 0 73 173 Z" fill="#673f27" /><circle cx="79.9" cy="177.4" r="2.3" fill="#673f27" /><path d="M 98.6 121.2 L 98.4 105.9 A 4.5 4.5 0 0 0 89.4 105.3 L 87.3 120.4 A 5.7 5.7 0 0 0 98.6 121.2 Z" fill="#6d4329" /><path d="M 78.7 117 Q 72 117 72 127.5 L 74.9 178.8 Q 74.9 183.5 79.7 183.5 L 105.3 183.5 Q 110 183.5 110 178.8 L 112 127.5 Q 112 117 105.3 117 Z" fill="#c9a96e" /><path d="M 78.7 117 Q 72 117 72 127.5 L 74.9 178.8 Q 74.9 183.5 79.7 183.5 L 82.5 183.5 L 79.7 128.4 Q 80.6 118.9 84.4 117 Z" fill="#b49863" /><line x1="76.8" y1="179.7" x2="107.2" y2="179.7" stroke="#b09460" stroke-width="1.5" stroke-linecap="butt" /><path d="M 87.2 117.5 Q 93 124.6 98.2 117.5" fill="#6d4329" stroke="#9c8355" stroke-width="1.7" stroke-linecap="round" stroke-linejoin="round" /><path d="M 109.3 93.2 Q 114.3 98.5 109.1 100.4 Z" fill="#7a4b2e" /><ellipse cx="94.8" cy="94.2" rx="15.7" ry="16.6" fill="#7a4b2e" /><ellipse cx="87.7" cy="96.1" rx="2.8" ry="4.2" fill="#72462b" /><path d="M 88.7 94.2 q -1.7 1.9 0 3.8" fill="none" stroke="#613c24" stroke-width="0.9" stroke-linecap="round" stroke-linejoin="round" /><path d="M 109.6 89.5 C 108.1 73.3 77.8 70.5 78.2 96.1 L 84.4 99.9 Q 87.2 89.5 96.8 86.6 Q 104.3 85.2 109.6 89.5 Z" fill="#1d1d1d" /><path d="M 99.1 89 Q 102.4 87.1 105.3 89" fill="none" stroke="#1a1a1a" stroke-width="1.6" stroke-linecap="round" stroke-linejoin="round" /><ellipse cx="102.4" cy="94.2" rx="1.7" ry="2.2" fill="#2c1810" /><circle cx="103" cy="93.4" r="0.6" fill="#ffffff" /><circle cx="102.4" cy="100.4" r="3" fill="#c27c6b" opacity="0.3"/><path d="M 99.6 102.8 q 3.3 2.8 7.1 0" fill="none" stroke="#2c1810" stroke-width="1.5" stroke-linecap="round" stroke-linejoin="round" /><path d="M 98.5 128.1 L 113.9 151 A 4.3 4.3 0 0 0 121 146.3 L 106.4 123 A 4.8 4.8 0 0 0 98.5 128.1 Z" fill="#7a4b2e" /><path d="M 114.9 152.1 L 131.8 163.8 A 3.6 3.6 0 0 0 136 158.1 L 120 145.2 A 4.3 4.3 0 0 0 114.9 152.1 Z" fill="#7a4b2e" /><path d="M 97.1 129 L 106.8 143.1 A 5.9 5.9 0 0 0 116.7 136.7 L 107.8 122.1 A 6.4 6.4 0 0 0 97.1 129 Z" fill="#c9a96e" /><path d="M 131.8 163.8 L 135 168 A 5 5 0 0 0 141 160 L 136 158.1 A 3.6 3.6 0 0 0 131.8 163.8 Z" fill="#7a4b2e" /><circle cx="139.1" cy="160.1" r="2.3" fill="#7a4b2e" /><g transform="rotate(0 142 152)"><rect x="131" y="133" width="22" height="38" rx="4" fill="#2c1810" /><rect x="133.5" y="136.5" width="17" height="30" rx="2" fill="#fdf8f0" /><rect x="139" y="134.3" width="6" height="1.2" rx="0.6" fill="#5a4636" /><text x="142" y="157" font-family="system-ui, -apple-system, 'Segoe UI', sans-serif" font-size="12" font-weight="600" fill="#2c1810" text-anchor="middle">🙏</text></g><ellipse cx="388" cy="251" rx="30" ry="5" fill="#2c1810" opacity="0.08"/><path d="M 385.9 174 L 386.8 210.1 A 5.9 5.9 0 0 0 398.7 210.1 L 399.6 174 A 6.9 6.9 0 0 0 385.9 174 Z" fill="#23130c" /><path d="M 386.8 210.3 L 388.7 243.5 A 5 5 0 0 0 398.7 243.2 L 398.7 209.9 A 5.9 5.9 0 0 0 386.8 210.3 Z" fill="#23130c" /><path d="M 399.4 250 L 382.3 250 Q 380.9 244.3 388.9 242.9 L 395.6 241 Q 400.3 241.4 399.9 246.2 Z" fill="#23130c" /><line x1="399.4" y1="248.9" x2="382.3" y2="248.9" stroke="#5a4636" stroke-width="1.7" stroke-linecap="butt" /><path d="M 376.4 173.8 L 376.4 209.9 A 5.9 5.9 0 0 0 388.2 210.3 L 390.1 174.2 A 6.9 6.9 0 0 0 376.4 173.8 Z" fill="#2c1810" /><path d="M 376.4 209.9 L 376.4 243.2 A 5 5 0 0 0 386.3 243.5 L 388.2 210.3 A 5.9 5.9 0 0 0 376.4 209.9 Z" fill="#2c1810" /><path d="M 387.1 250 L 370 250 Q 368.5 244.3 376.6 242.9 L 383.2 241 Q 388 241.4 387.5 246.2 Z" fill="#2c1810" /><line x1="387.1" y1="248.9" x2="370" y2="248.9" stroke="#5a4636" stroke-width="1.7" stroke-linecap="butt" /><path d="M 392.3 126.2 L 396.1 153.5 A 5.2 5.2 0 0 0 406.5 152.4 L 404.6 124.9 A 6.2 6.2 0 0 0 392.3 126.2 Z" fill="#674e6b" /><path d="M 396.1 153.5 L 399 173.8 A 4.5 4.5 0 0 0 408 172.9 L 406.5 152.4 A 5.2 5.2 0 0 0 396.1 153.5 Z" fill="#674e6b" /><path d="M 398.2 170.8 L 398.8 173.9 A 4.8 4.8 0 0 0 408.2 172.9 L 408.1 169.8 A 5 5 0 0 0 398.2 170.8 Z" fill="#5c4660" /><path d="M 399.9 173.7 L 399.1 179 A 5 5 0 0 0 409 177.9 L 407 173 A 3.6 3.6 0 0 0 399.9 173.7 Z" fill="#ceaf96" /><circle cx="400.1" cy="177.4" r="2.3" fill="#ceaf96" /><path d="M 392.7 120.4 L 390.6 105.3 A 4.5 4.5 0 0 0 381.6 105.9 L 381.4 121.2 A 5.7 5.7 0 0 0 392.7 120.4 Z" fill="#daba9f" /><path d="M 401.3 117 Q 407.9 117 407.9 127.5 L 405.1 178.8 Q 405.1 183.5 400.4 183.5 L 374.7 183.5 Q 369.9 183.5 369.9 178.8 L 368.1 127.5 Q 368.1 117 374.7 117 Z" fill="#7a5c7e" /><path d="M 401.3 117 Q 407.9 117 407.9 127.5 L 405.1 178.8 Q 405.1 183.5 400.4 183.5 L 397.5 183.5 L 400.4 128.4 Q 399.4 118.9 395.6 117 Z" fill="#6d5271" /><line x1="372.8" y1="179.7" x2="403.2" y2="179.7" stroke="#6b506e" stroke-width="1.5" stroke-linecap="butt" /><path d="M 392.8 117.5 Q 387.1 124.6 381.8 117.5" fill="#daba9f" stroke="#5f4762" stroke-width="1.7" stroke-linecap="round" stroke-linejoin="round" /><path d="M 385.1 78.1 C 405.1 78.1 407 105.6 404.1 122.7 Q 396.5 125.5 389.9 121.8 Q 390.8 107.5 383.2 98 Z" fill="#976034" /><path d="M 370.7 93.2 Q 365.7 98.5 370.9 100.4 Z" fill="#f3cfb1" /><ellipse cx="385.1" cy="94.2" rx="15.7" ry="16.6" fill="#f3cfb1" /><path d="M 369.9 91.4 C 371.8 72.4 402.7 70.5 402.2 99.9 L 393.7 101.8 Q 390.8 88.5 380.4 85.7 Q 373.8 85.7 369.9 91.4 Z" fill="#a86b3a" /><path d="M 380.9 89 Q 377.5 87.1 374.7 89" fill="none" stroke="#976034" stroke-width="1.6" stroke-linecap="round" stroke-linejoin="round" /><ellipse cx="377.5" cy="94.2" rx="1.7" ry="2.2" fill="#2c1810" /><circle cx="377" cy="93.4" r="0.6" fill="#ffffff" /><circle cx="377.5" cy="100.4" r="3" fill="#c27c6b" opacity="0.3"/><path d="M 380.4 102.8 q -3.3 2.8 -7.1 0" fill="none" stroke="#2c1810" stroke-width="1.5" stroke-linecap="round" stroke-linejoin="round" /><path d="M 372.4 122.2 L 358.2 145.8 A 5.2 5.2 0 0 0 366.9 151.5 L 382.7 128.9 A 6.2 6.2 0 0 0 372.4 122.2 Z" fill="#7a5c7e" /><path d="M 359.4 144.5 L 343.4 157.3 A 4.5 4.5 0 0 0 348.8 164.6 L 365.7 152.9 A 5.2 5.2 0 0 0 359.4 144.5 Z" fill="#7a5c7e" /><path d="M 345.6 155.1 L 343.3 157.1 A 4.8 4.8 0 0 0 349 164.7 L 351.6 163.1 A 5 5 0 0 0 345.6 155.1 Z" fill="#6d5271" /><path d="M 344 158.1 L 339 160 A 5 5 0 0 0 345 168 L 348.2 163.8 A 3.6 3.6 0 0 0 344 158.1 Z" fill="#f3cfb1" /><circle cx="345.4" cy="166.2" r="2.3" fill="#f3cfb1" /><g transform="rotate(0 338 152)"><rect x="327" y="133" width="22" height="38" rx="4" fill="#2c1810" /><rect x="329.5" y="136.5" width="17" height="30" rx="2" fill="#fdf8f0" /><rect x="335" y="134.3" width="6" height="1.2" rx="0.6" fill="#5a4636" /><text x="338" y="157" font-family="system-ui, -apple-system, 'Segoe UI', sans-serif" font-size="12" font-weight="600" fill="#8b4513" text-anchor="middle">3</text></g><text x="178" y="176" font-family="system-ui, -apple-system, 'Segoe UI', sans-serif" font-size="14" font-weight="700" fill="#8b4513" text-anchor="middle">+1</text><text x="212" y="190" font-family="system-ui, -apple-system, 'Segoe UI', sans-serif" font-size="13" font-weight="700" fill="#8b4513" text-anchor="middle">+1</text><text x="282" y="186" font-family="system-ui, -apple-system, 'Segoe UI', sans-serif" font-size="12" font-weight="700" fill="#8b4513" text-anchor="middle">+1</text><path d="M 240 176 C 228 168.8 234.6 160.4 240 167 C 245.4 160.4 252 168.8 240 176 Z" fill="#c27c6b" /><text x="240" y="34" font-family="system-ui, -apple-system, 'Segoe UI', sans-serif" font-size="15" font-weight="600" fill="#2c1810" text-anchor="middle">Praying now: tap 🙏 every time you pray</text></g>
<rect x="1" y="1" width="478" height="298" rx="18" fill="none" stroke="#ead9bf" stroke-width="2"/>
</svg>
